<?xml version="1.0" encoding="utf-8"?>
<!-- Generator: Adobe Illustrator 24.1.0, SVG Export Plug-In . SVG Version: 6.00 Build 0)  -->
<svg version="1.1" xmlns="http://www.w3.org/2000/svg" xmlns:xlink="http://www.w3.org/1999/xlink" x="0px" y="0px"
	 viewBox="0 0 1417.32 1417.32" style="enable-background:new 0 0 1417.32 1417.32;" xml:space="preserve">
<g id="Layer_1">
	<rect x="111.49" y="741.69" width="215.39" height="14"/>
	<g>
		<path d="M458.9,725.34V555.89h79.4v17.67h-58.34V629h52.29v17.67h-52.29v61h58.34v17.67H458.9z"/>
		<path d="M636.7,723.41c-2.5-1.29-4.64-3.06-6.42-5.33c-3.71,4.84-8.64,7.26-14.77,7.26h-16.7c-12.27,0-21.18-2.46-26.75-7.38
			c-5.57-4.92-8.35-13.35-8.35-25.3v-4.84c0-25.01,11.78-37.52,35.34-37.52h25.18v-12.1c0-5-1.54-8.87-4.6-11.62
			c-3.07-2.74-7.59-4.12-13.56-4.12H573.4v-18.16h30.26c14.04,0,24.41,3.07,31.11,9.2c6.69,6.13,10.05,15.98,10.05,29.53v58.1
			c0,2.42,0.93,4.24,2.78,5.45c1.85,1.21,4.96,1.82,9.32,1.82v16.95H643.6C641.5,725.34,639.2,724.7,636.7,723.41z M622.3,703.8
			c1.29-2.26,1.94-5.16,1.94-8.71v-26.63h-25.42c-4.2,0-7.67,1.37-10.41,4.12c-2.75,2.75-4.12,6.21-4.12,10.41v12.1
			c0,4.2,0.97,7.26,2.9,9.2s5,2.9,9.2,2.9h16.7C617.94,707.19,621,706.06,622.3,703.8z"/>
		<path d="M740.54,717.84c-6.21,5-15.21,7.5-26.99,7.5h-31.23v-18.16h33.65c4.36,0,7.66-0.93,9.92-2.78
			c2.26-1.85,3.39-4.56,3.39-8.11v-12.83c0-7.26-3.47-10.89-10.41-10.89h-4.12c-11.3,0-19.73-2.46-25.3-7.38
			c-5.57-4.92-8.35-12.71-8.35-23.36v-7.02c0-10.81,3.06-18.6,9.2-23.36c6.13-4.76,15.17-7.14,27.11-7.14h27.6v18.16h-30.02
			c-4.04,0-7.26,0.93-9.68,2.78c-2.42,1.86-3.63,4.56-3.63,8.11v8.71c0,3.71,1.09,6.46,3.27,8.23c2.18,1.78,4.96,2.66,8.35,2.66
			h3.39c10.81,0,19.04,2.62,24.69,7.87c5.65,5.25,8.47,13.03,8.47,23.36v10.89C749.87,705.25,746.76,712.84,740.54,717.84z"/>
		<path d="M825.63,753.54c-2.1,4.44-5.05,7.91-8.84,10.41c-3.79,2.5-8.84,3.75-15.13,3.75c-3.39,0-7.99-0.48-13.8-1.45v-17.67
			c4.52,0.64,8.71,0.97,12.59,0.97c4.52,0,7.75-3.63,9.68-10.89l3.87-13.31h-4.84l-37.52-121.04h22.27L822,704.28l23.72-99.98h21.06
			l-35.1,131.69C829.75,743.26,827.73,749.1,825.63,753.54z"/>
		<path d="M970.39,650.18c-6.94,6.21-17.19,9.32-30.74,9.32h-22.75v65.84h-21.06V555.89h43.33c13.71,0,24.09,3.03,31.11,9.08
			c7.02,6.05,10.53,15.61,10.53,28.69v27.6C980.8,634.32,977.33,643.97,970.39,650.18z M955.5,578.16
			c-2.83-2.74-7.3-4.12-13.43-4.12h-25.18v67.3h25.18c6.13,0,10.61-1.41,13.43-4.24c2.82-2.82,4.24-7.3,4.24-13.44v-32.2
			C959.74,585.34,958.33,580.91,955.5,578.16z"/>
		<path d="M1070.73,723.41c-2.5-1.29-4.64-3.06-6.42-5.33c-3.71,4.84-8.64,7.26-14.77,7.26h-16.7c-12.27,0-21.18-2.46-26.75-7.38
			c-5.57-4.92-8.35-13.35-8.35-25.3v-4.84c0-25.01,11.78-37.52,35.34-37.52h25.18v-12.1c0-5-1.54-8.87-4.6-11.62
			c-3.07-2.74-7.59-4.12-13.56-4.12h-32.68v-18.16h30.26c14.04,0,24.41,3.07,31.11,9.2c6.69,6.13,10.05,15.98,10.05,29.53v58.1
			c0,2.42,0.93,4.24,2.78,5.45c1.85,1.21,4.96,1.82,9.32,1.82v16.95h-13.31C1075.53,725.34,1073.23,724.7,1070.73,723.41z
			 M1056.33,703.8c1.29-2.26,1.94-5.16,1.94-8.71v-26.63h-25.42c-4.2,0-7.67,1.37-10.41,4.12c-2.75,2.75-4.12,6.21-4.12,10.41v12.1
			c0,4.2,0.97,7.26,2.9,9.2c1.94,1.94,5,2.9,9.2,2.9h16.7C1051.97,707.19,1055.03,706.06,1056.33,703.8z"/>
		<path d="M1174.58,717.84c-6.21,5-15.21,7.5-26.99,7.5h-31.23v-18.16H1150c4.36,0,7.66-0.93,9.92-2.78
			c2.26-1.85,3.39-4.56,3.39-8.11v-12.83c0-7.26-3.47-10.89-10.41-10.89h-4.12c-11.3,0-19.73-2.46-25.3-7.38
			c-5.57-4.92-8.35-12.71-8.35-23.36v-7.02c0-10.81,3.06-18.6,9.2-23.36c6.13-4.76,15.17-7.14,27.11-7.14h27.6v18.16h-30.02
			c-4.04,0-7.26,0.93-9.68,2.78c-2.42,1.86-3.63,4.56-3.63,8.11v8.71c0,3.71,1.09,6.46,3.27,8.23c2.18,1.78,4.96,2.66,8.35,2.66
			h3.39c10.81,0,19.04,2.62,24.69,7.87c5.65,5.25,8.47,13.03,8.47,23.36v10.89C1183.9,705.25,1180.79,712.84,1174.58,717.84z"/>
		<path d="M1268.74,717.84c-6.21,5-15.21,7.5-26.99,7.5h-31.23v-18.16h33.65c4.36,0,7.66-0.93,9.92-2.78
			c2.26-1.85,3.39-4.56,3.39-8.11v-12.83c0-7.26-3.47-10.89-10.41-10.89h-4.12c-11.3,0-19.73-2.46-25.3-7.38
			c-5.57-4.92-8.35-12.71-8.35-23.36v-7.02c0-10.81,3.06-18.6,9.2-23.36c6.13-4.76,15.17-7.14,27.11-7.14h27.6v18.16h-30.02
			c-4.04,0-7.26,0.93-9.68,2.78c-2.42,1.86-3.63,4.56-3.63,8.11v8.71c0,3.71,1.09,6.46,3.27,8.23c2.18,1.78,4.96,2.66,8.35,2.66
			h3.39c10.81,0,19.04,2.62,24.69,7.87c5.65,5.25,8.47,13.03,8.47,23.36v10.89C1278.06,705.25,1274.95,712.84,1268.74,717.84z"/>
	</g>
	<g>
		<path d="M131.74,729.03V546.54h85.51v19.03h-62.83v59.7h56.31v19.03h-56.31V710h62.83v19.03H131.74z"/>
		<path d="M296.24,648.08c-7.47,6.69-18.51,10.04-33.11,10.04h-24.51v70.91h-22.68V546.54h46.66c14.77,0,25.94,3.26,33.5,9.78
			c7.56,6.52,11.34,16.81,11.34,30.89v29.72C307.45,631.01,303.71,641.4,296.24,648.08z M280.21,570.53
			c-3.04-2.95-7.87-4.43-14.47-4.43h-27.11v72.47h27.11c6.6,0,11.43-1.52,14.47-4.56c3.04-3.04,4.56-7.86,4.56-14.47v-34.67
			C284.77,578.26,283.24,573.48,280.21,570.53z"/>
	</g>
</g>
<g id="Layer_2">
</g>
</svg>
