<?xml version="1.0" encoding="utf-8"?>
<!-- Generator: Adobe Illustrator 24.1.0, SVG Export Plug-In . SVG Version: 6.00 Build 0)  -->
<svg version="1.1" xmlns="http://www.w3.org/2000/svg" xmlns:xlink="http://www.w3.org/1999/xlink" x="0px" y="0px"
	 viewBox="0 0 1417.32 1417.32" style="enable-background:new 0 0 1417.32 1417.32;" xml:space="preserve">
<style type="text/css">
	.st0{fill:#FFFFFF;}
</style>
<g id="Layer_1">
	<rect x="111.49" y="741.69" class="st0" width="215.39" height="14"/>
	<g>
		<path class="st0" d="M131.74,729.03V546.54h85.51v19.03h-62.83v59.7h56.31v19.03h-56.31V710h62.83v19.03H131.74z"/>
		<path class="st0" d="M296.24,648.08c-7.47,6.69-18.51,10.04-33.11,10.04h-24.51v70.91h-22.68V546.54h46.66
			c14.77,0,25.94,3.26,33.5,9.78c7.56,6.52,11.34,16.81,11.34,30.89v29.72C307.45,631.01,303.71,641.4,296.24,648.08z
			 M280.21,570.53c-3.04-2.95-7.87-4.43-14.47-4.43h-27.11v72.47h27.11c6.6,0,11.43-1.52,14.47-4.56c3.04-3.04,4.56-7.86,4.56-14.47
			v-34.67C284.77,578.26,283.24,573.48,280.21,570.53z"/>
	</g>
</g>
<g id="Layer_2">
</g>
</svg>
