<?xml version="1.0" encoding="utf-8"?>
<!-- Generator: Adobe Illustrator 24.1.0, SVG Export Plug-In . SVG Version: 6.00 Build 0)  -->
<svg version="1.1" id="Layer_1" xmlns="http://www.w3.org/2000/svg" xmlns:xlink="http://www.w3.org/1999/xlink" x="0px" y="0px"
	 viewBox="0 0 864.6 242.8" style="enable-background:new 0 0 864.6 242.8;" xml:space="preserve">
<g id="Layer_1_1_">
	<g>
		<path d="M18.9,189V19.5h79.4v17.7H40v55.4h52.3v17.7H40v61h58.3V189L18.9,189L18.9,189z"/>
		<path d="M196.7,187c-2.5-1.3-4.6-3.1-6.4-5.3c-3.7,4.8-8.6,7.3-14.8,7.3h-16.7c-12.3,0-21.2-2.5-26.8-7.4s-8.3-13.3-8.3-25.3v-4.8
			c0-25,11.8-37.5,35.3-37.5h25.2v-12.1c0-5-1.5-8.9-4.6-11.6c-3.1-2.7-7.6-4.1-13.6-4.1h-32.7V67.9h30.3c14,0,24.4,3.1,31.1,9.2
			c6.7,6.1,10,16,10,29.5v58.1c0,2.4,0.9,4.2,2.8,5.5c1.8,1.2,5,1.8,9.3,1.8v17h-13.3C201.5,189,199.2,188.3,196.7,187z
			 M182.3,167.4c1.3-2.3,1.9-5.2,1.9-8.7v-26.6h-25.4c-4.2,0-7.7,1.4-10.4,4.1c-2.8,2.8-4.1,6.2-4.1,10.4v12.1c0,4.2,1,7.3,2.9,9.2
			s5,2.9,9.2,2.9h16.7C177.9,170.8,181,169.7,182.3,167.4z"/>
		<path d="M300.5,181.5c-6.2,5-15.2,7.5-27,7.5h-31.2v-18.2H276c4.4,0,7.7-0.9,9.9-2.8c2.3-1.8,3.4-4.6,3.4-8.1v-12.8
			c0-7.3-3.5-10.9-10.4-10.9h-4.1c-11.3,0-19.7-2.5-25.3-7.4s-8.3-12.7-8.3-23.4v-7c0-10.8,3.1-18.6,9.2-23.4
			c6.1-4.8,15.2-7.1,27.1-7.1H305v18.2h-30c-4,0-7.3,0.9-9.7,2.8c-2.4,1.9-3.6,4.6-3.6,8.1v8.7c0,3.7,1.1,6.5,3.3,8.2
			c2.2,1.8,5,2.7,8.3,2.7h3.4c10.8,0,19,2.6,24.7,7.9s8.5,13,8.5,23.4v10.9C309.9,168.9,306.8,176.5,300.5,181.5z"/>
		<path d="M385.6,217.2c-2.1,4.4-5,7.9-8.8,10.4c-3.8,2.5-8.8,3.8-15.1,3.8c-3.4,0-8-0.5-13.8-1.5v-17.7c4.5,0.6,8.7,1,12.6,1
			c4.5,0,7.8-3.6,9.7-10.9L374,189h-4.8l-37.5-121h22.3l28.1,100l23.7-100h21.1l-35.1,131.7C389.8,206.9,387.7,212.7,385.6,217.2z"
			/>
		<path d="M530.4,113.8c-6.9,6.2-17.2,9.3-30.7,9.3h-22.8V189h-21.1V19.5h43.3c13.7,0,24.1,3,31.1,9.1c7,6,10.5,15.6,10.5,28.7v27.6
			C540.8,98,537.3,107.6,530.4,113.8z M515.5,41.8c-2.8-2.7-7.3-4.1-13.4-4.1h-25.2V105h25.2c6.1,0,10.6-1.4,13.4-4.2
			c2.8-2.8,4.2-7.3,4.2-13.4V55.1C519.7,49,518.3,44.5,515.5,41.8z"/>
		<path d="M630.7,187c-2.5-1.3-4.6-3.1-6.4-5.3c-3.7,4.8-8.6,7.3-14.8,7.3h-16.7c-12.3,0-21.2-2.5-26.8-7.4s-8.3-13.3-8.3-25.3v-4.8
			c0-25,11.8-37.5,35.3-37.5h25.2v-12.1c0-5-1.5-8.9-4.6-11.6c-3.1-2.7-7.6-4.1-13.6-4.1h-32.7V67.9h30.3c14,0,24.4,3.1,31.1,9.2
			c6.7,6.1,10.1,16,10.1,29.5v58.1c0,2.4,0.9,4.2,2.8,5.5s5,1.8,9.3,1.8v17h-13.3C635.5,189,633.2,188.3,630.7,187z M616.3,167.4
			c1.3-2.3,1.9-5.2,1.9-8.7v-26.6h-25.4c-4.2,0-7.7,1.4-10.4,4.1c-2.8,2.8-4.1,6.2-4.1,10.4v12.1c0,4.2,1,7.3,2.9,9.2
			c1.9,1.9,5,2.9,9.2,2.9h16.7C612,170.8,615,169.7,616.3,167.4z"/>
		<path d="M734.6,181.5c-6.2,5-15.2,7.5-27,7.5h-31.2v-18.2H710c4.4,0,7.7-0.9,9.9-2.8c2.3-1.8,3.4-4.6,3.4-8.1v-12.8
			c0-7.3-3.5-10.9-10.4-10.9h-4.1c-11.3,0-19.7-2.5-25.3-7.4c-5.6-4.9-8.3-12.7-8.3-23.4v-7c0-10.8,3.1-18.6,9.2-23.4
			c6.1-4.8,15.2-7.1,27.1-7.1H739v18.2h-30c-4,0-7.3,0.9-9.7,2.8c-2.4,1.9-3.6,4.6-3.6,8.1v8.7c0,3.7,1.1,6.5,3.3,8.2
			c2.2,1.8,5,2.7,8.3,2.7h3.4c10.8,0,19,2.6,24.7,7.9c5.7,5.2,8.5,13,8.5,23.4v10.9C743.9,168.9,740.8,176.5,734.6,181.5z"/>
		<path d="M828.7,181.5c-6.2,5-15.2,7.5-27,7.5h-31.2v-18.2h33.7c4.4,0,7.7-0.9,9.9-2.8c2.3-1.8,3.4-4.6,3.4-8.1v-12.8
			c0-7.3-3.5-10.9-10.4-10.9H803c-11.3,0-19.7-2.5-25.3-7.4c-5.6-4.9-8.3-12.7-8.3-23.4v-7c0-10.8,3.1-18.6,9.2-23.4
			c6.1-4.8,15.2-7.1,27.1-7.1h27.6v18.2h-30c-4,0-7.3,0.9-9.7,2.8c-2.4,1.9-3.6,4.6-3.6,8.1v8.7c0,3.7,1.1,6.5,3.3,8.2
			c2.2,1.8,5,2.7,8.3,2.7h3.4c10.8,0,19,2.6,24.7,7.9c5.7,5.2,8.5,13,8.5,23.4v10.9C838.1,168.9,834.9,176.5,828.7,181.5z"/>
	</g>
</g>
<g id="Layer_2_1_">
</g>
</svg>
